<?xml version="1.0" encoding="UTF-8"?><svg id="uuid-80ba7230-ad68-44b5-aaee-b7b19672fb85" xmlns="http://www.w3.org/2000/svg" viewBox="0 0 36.62 40.64"><defs><style>.uuid-f5eee390-76f7-403e-bcaf-d4a23dd686f2{stroke-width:0px;}</style></defs><g id="uuid-bb717182-8382-4f66-9bf3-596ee39ed796"><path class="uuid-f5eee390-76f7-403e-bcaf-d4a23dd686f2" d="m29.47,17.49l-1.53-.15c-.12-.01-.23-.09-.27-.2l-.48-1.17c-.05-.11-.03-.24.05-.34l.97-1.19c.46-.59.43-1.41-.08-1.92l-2.02-2.02c-.51-.51-1.33-.54-1.92-.07l-1.18.97c-.09.08-.23.1-.34.05l-1.17-.48c-.11-.05-.19-.15-.2-.27l-.15-1.53c-.09-.74-.69-1.3-1.41-1.3h-2.85c-.72,0-1.32.56-1.41,1.31l-.15,1.51c-.01.12-.09.23-.2.27l-1.17.48c-.11.05-.24.03-.34-.05l-1.19-.97c-.59-.46-1.41-.43-1.92.08l-2.02,2.02c-.51.51-.54,1.33-.07,1.92l.96,1.18c.08.1.1.23.05.34l-.48,1.17c-.05.11-.15.19-.28.2l-1.53.15c-.74.09-1.3.69-1.3,1.41v2.85c0,.72.56,1.32,1.31,1.41l1.51.15c.12.01.23.09.27.2l.48,1.17c.05.11.03.24-.05.34l-.97,1.19c-.46.59-.43,1.41.08,1.92l2.02,2.02c.51.51,1.33.54,1.92.07l1.18-.96c.09-.08.23-.1.34-.05l1.17.49c.11.05.19.15.2.28l.15,1.53c.09.74.69,1.3,1.41,1.3h2.85c.72,0,1.32-.56,1.41-1.31l.15-1.51c.01-.12.09-.23.2-.28l1.17-.49c.11-.05.24-.03.34.05l1.19.97c.59.46,1.41.43,1.92-.08l2.02-2.02c.51-.51.54-1.33.07-1.92l-.96-1.18c-.08-.09-.1-.22-.05-.34l.48-1.17c.05-.11.15-.19.28-.2l1.53-.15c.74-.09,1.3-.69,1.3-1.41v-2.85c0-.72-.56-1.32-1.3-1.41Zm-.15,4.3l-1.51.15c-.63.06-1.17.46-1.42,1.05l-.48,1.17c-.24.58-.14,1.25.26,1.74l.96,1.17s.03.08.03.08l-2.01,2.02s-.05,0-.08-.02l-1.18-.96c-.49-.4-1.16-.5-1.75-.26l-1.17.49c-.59.24-.99.78-1.05,1.42l-.15,1.5c0,.05-.03.08-.03.08h-2.85s-.03-.03-.04-.07l-.15-1.51c-.06-.63-.46-1.17-1.05-1.42l-1.17-.49c-.21-.09-.44-.13-.66-.13-.39,0-.78.13-1.09.39l-1.17.96s-.08.03-.08.03l-2.02-2.01s0-.04.02-.08l.96-1.18c.4-.49.5-1.16.26-1.74l-.48-1.17c-.24-.59-.79-.99-1.42-1.05l-1.5-.15c-.05,0-.08-.03-.08-.04v-2.85s.03-.03.07-.04l1.51-.15c.63-.06,1.17-.46,1.42-1.05l.48-1.17c.24-.59.14-1.25-.26-1.74l-.96-1.17s-.03-.08-.03-.08l2.01-2.02s.05,0,.08.02l1.18.97c.49.4,1.16.5,1.75.26l1.17-.48c.59-.24.99-.79,1.05-1.42l.15-1.5c0-.05.03-.08.03-.08h2.85s.03.03.04.07l.15,1.51c.06.63.46,1.17,1.05,1.42l1.17.48c.59.24,1.25.14,1.74-.26l1.17-.96s.08-.03.08-.03l2.02,2.01s0,.05-.02.08l-.96,1.18c-.4.49-.5,1.16-.26,1.74l.48,1.17c.24.59.79.99,1.42,1.05l1.51.15s.07.03.07.04v2.85s-.03.03-.07.04Z"/><path class="uuid-f5eee390-76f7-403e-bcaf-d4a23dd686f2" d="m18.31,15.1c-2.88,0-5.22,2.34-5.22,5.22s2.34,5.22,5.22,5.22,5.22-2.34,5.22-5.22-2.34-5.22-5.22-5.22Zm0,9.05c-2.12,0-3.84-1.72-3.84-3.84s1.72-3.84,3.84-3.84,3.84,1.72,3.84,3.84-1.72,3.84-3.84,3.84Z"/><path class="uuid-f5eee390-76f7-403e-bcaf-d4a23dd686f2" d="m22.63,38.25c.13-.13.19-.29.19-.47s-.07-.35-.19-.47l-2.2-2.2c-.13-.13-.29-.2-.47-.2s-.35.07-.47.2c-.13.13-.2.29-.2.47s.07.35.2.47l.51.51.57.57-.81.07c-.49.04-.98.06-1.46.06-9.36,0-16.98-7.62-16.98-16.98,0-.81.06-1.62.17-2.43.03-.21-.04-.42-.19-.57-.13-.13-.29-.2-.47-.2h0c-.07,0-.14.01-.21.04-.24.08-.41.28-.45.53C.06,18.53,0,19.42,0,20.29c0,4.89,1.91,9.48,5.37,12.94,3.46,3.46,8.06,5.37,12.94,5.37.39,0,.79-.01,1.18-.04l1-.07-.71.71-.3.3c-.26.26-.26.68,0,.94.13.13.29.2.47.2s.35-.07.47-.2l2.2-2.2Z"/><path class="uuid-f5eee390-76f7-403e-bcaf-d4a23dd686f2" d="m36.43,22.92c.13-.87.19-1.75.19-2.63,0-4.89-1.91-9.48-5.37-12.94-3.46-3.46-8.06-5.37-12.94-5.37-.39,0-.78.01-1.18.04l-1,.07.71-.71.24-.24c.13-.13.2-.29.2-.47s-.07-.35-.2-.47c-.13-.13-.29-.19-.47-.19s-.35.07-.47.19l-2.2,2.2c-.26.26-.26.68,0,.94l2.2,2.2c.13.13.29.2.47.2s.35-.07.47-.19c.13-.13.2-.29.2-.47s-.07-.35-.2-.47l-.56-.56-.57-.57.8-.07c.52-.05,1.04-.07,1.56-.07,9.36,0,16.98,7.62,16.98,16.98,0,.81-.06,1.62-.17,2.43-.03.21.04.42.19.57.13.13.29.2.47.2.07,0,.14-.01.21-.03.24-.08.41-.28.45-.53Z"/></g></svg>