<?xml version="1.0" encoding="UTF-8"?><svg id="uuid-07041400-747c-453a-a9b8-10f5a8b56fce" xmlns="http://www.w3.org/2000/svg" viewBox="0 0 40.28 23.77"><defs><style>.uuid-a3c8a868-3433-4e45-b3de-d567167aa896{stroke-width:0px;}</style></defs><g id="uuid-2f07de5c-ac0a-4f8b-b68a-589c1288fb17"><path class="uuid-a3c8a868-3433-4e45-b3de-d567167aa896" d="m32.33,23.77H3.53s-3.53-.3-3.53-4.68V2.91h13.37c4.32,0,5.92-2.55,5.99-2.66l.15-.25h.3s10.9,0,10.9,0v20.07c-.01.44.08,1.66.67,2.27.25.25.56.38.95.38v1.06Zm-28.74-1.06h26.74c-.72-1.07-.68-2.59-.68-2.66V1.06h-9.57c-.57.76-2.56,2.91-6.72,2.91H1.06v15.13c0,3.3,2.29,3.6,2.53,3.62Z"/><path class="uuid-a3c8a868-3433-4e45-b3de-d567167aa896" d="m32.34,23.77h-.02l-.46-.58.47-.48v.53s0-.53,0-.53c.06,0,1.57-.04,2.04-1.99l4.52-16.74h-7.51v-1.06h8.89l-4.88,18.06c-.54,2.2-2.22,2.78-3.06,2.78Z"/></g></svg>