<?xml version="1.0" encoding="utf-8"?>
<!-- Generator: Adobe Illustrator 27.2.0, SVG Export Plug-In . SVG Version: 6.00 Build 0)  -->
<svg version="1.1" id="Layer_2_00000003797902973588648310000007879095247974421168_"
	 xmlns="http://www.w3.org/2000/svg" xmlns:xlink="http://www.w3.org/1999/xlink" x="0px" y="0px" viewBox="0 0 773.8 684.5"
	 style="enable-background:new 0 0 773.8 684.5;" xml:space="preserve">
<g id="Layer_1-2">
	<path d="M722.3,428.3c-18.3,7.1-43.5,16.1-73.6,18.9c-2.7-18-5.5-39.6-8.1-63.2l-1.6,0.9c0,0-0.2-0.4-0.6-1.3
		c-0.1-0.2-0.2-0.5-0.4-0.7c-0.1-0.2-0.1-0.2-0.2-0.3c0-0.1-0.1-0.1-0.1-0.2c-0.1-0.2-0.2-0.3-0.3-0.5c0-0.1-0.1-0.2-0.2-0.3
		c-0.1-0.1-0.2-0.3-0.3-0.4c-1.5-2.2-4.2-5.6-8.9-9.3c-4.7-3.8-11.2-7.9-19.4-11.9c-4.1-2-8.6-3.9-13.4-5.8
		c-4.8-1.8-10-3.6-15.5-5.3c-11-3.3-23.2-6.2-36.4-8.5c-13.1-2.3-27.2-4.1-41.8-5.2c-7.3-0.6-14.8-1-22.3-1.3
		c-7.5-0.2-15.2-0.4-22.9-0.4c-15.5,0-31.2,0.6-46.9,1.6c-15.7,1-31.4,2.6-46.8,4.6c-15.4,2-30.5,4.3-45.1,6.9s-28.6,5.5-41.9,8.4
		c-13.3,2.9-25.7,6-37.2,9c-5.7,1.5-11.2,2.9-16.4,4.4c-2.6,0.7-5.1,1.4-7.6,2.1c-2.5,0.7-4.9,1.4-7.2,2.1c-4.6,1.3-9,2.6-13,3.8
		c-4,1.2-7.7,2.3-11,3.4c-6.6,2-11.8,3.7-15.3,4.9s-5.4,1.8-5.4,1.8s1.9-0.7,5.3-2c3.5-1.3,8.6-3.2,15.1-5.5
		c3.3-1.2,6.9-2.5,10.8-3.8c3.9-1.4,8.2-2.9,12.8-4.4c2.3-0.8,4.7-1.6,7.1-2.4c2.4-0.8,5-1.6,7.5-2.4c5.1-1.7,10.6-3.4,16.3-5.1
		c11.4-3.4,23.8-7.1,37-10.6s27.2-7,41.7-10.2c14.5-3.2,29.7-6.2,45.1-8.9c15.5-2.6,31.2-4.9,47.1-6.6c15.9-1.7,31.8-3,47.5-3.7
		c7.9-0.4,15.7-0.5,23.4-0.6c7.7,0,15.4,0.1,22.9,0.4c15,0.6,29.6,1.8,43.4,3.6c13.8,1.8,26.8,4.3,38.7,7.3c2.1,0.5,4.2,1.1,6.3,1.7
		c0-0.2,0-0.5,0-0.7c-0.2-3.1-0.3-6.6-0.5-10.4c-0.2-3.8-0.4-8-0.5-12.3c-0.2-4.4-0.3-9-0.4-13.8c-0.1-4.8-0.2-9.7-0.2-14.7
		c0-5,0-10.1,0-15.2c0.1-5.1,0.2-10.2,0.3-15.2c0.1-5,0.3-9.9,0.5-14.7c0.2-4.8,0.4-9.3,0.7-13.7s0.5-8.4,0.8-12.2
		c0.2-3.8,0.5-7.3,0.8-10.3c0.2-3.1,0.5-5.8,0.7-7.9c0.4-4.4,0.6-6.9,0.6-6.9s0.1,2.5,0.3,6.9c0.1,2.2,0.2,4.9,0.4,8
		s0.3,6.5,0.6,10.3c0.3,3.8,0.5,7.9,0.8,12.2c0.3,4.3,0.7,8.9,1.1,13.6c0.4,4.7,0.9,9.6,1.4,14.5c0.5,4.9,1.1,9.9,1.7,14.9
		c0.3,2.8,0.7,5.5,1,8.3c0-0.7,0-1.4,0-2.1c0-7.7-0.1-15.7,0-23.8c0-8.1,0.4-16.3,0.6-24.5c0.2-4.1,0.4-8.2,0.6-12.3
		c0.1-2,0.2-4.1,0.3-6.1c0.1-2,0.3-4.1,0.4-6.1c0.3-4,0.5-8,0.8-12c0.3-3.9,0.7-7.8,1-11.7c0.2-1.9,0.3-3.8,0.5-5.7
		c0.2-1.9,0.4-3.7,0.6-5.6c0.4-3.7,0.8-7.3,1.2-10.8c0.8-7,1.7-13.6,2.5-19.7c0.8-6.1,1.8-11.6,2.5-16.6c0.7-4.9,1.5-9.2,2.1-12.7
		c1.2-7,2-11.1,2-11.1s-0.4,4.1-1,11.2c-0.3,3.6-0.8,7.9-1.1,12.8c-0.3,5-0.8,10.6-1.1,16.7c-0.3,6.1-0.7,12.7-0.9,19.7
		c-0.1,3.5-0.2,7.1-0.3,10.8c0,1.8-0.1,3.7-0.1,5.6c0,1.9,0,3.8,0,5.7c0,3.8,0,7.7-0.1,11.6c0,3.9,0.1,7.9,0.2,11.9c0,2,0.1,4,0.1,6
		c0.1,2,0.1,4,0.2,6.1c0.1,4,0.3,8.1,0.4,12.2c0.4,8.1,0.8,16.2,1.4,24.2c0.5,8,1.2,15.8,1.9,23.4c0.8,7.6,1.5,14.9,2.3,21.8
		c0.8,6.9,1.7,13.4,2.5,19.5c0.8,6,1.7,11.5,2.4,16.4c0.8,4.9,1.5,9.1,2,12.5c0.4,2.1,0.7,3.9,0.9,5.4c4.3,2.2,8.2,4.5,11.7,6.9
		c-9.5-96-15.2-215.4-1.1-286.8c0.8-4.2,0.8-7.6,0-10.4C627.9,14.9,504.7-8.9,356.8,3.1C218,14.3,102.7,53.4,90.3,92.8
		c5.5-4.4,12.2-9,19.9-13.7c9.2-5.6,19.8-11.2,31.7-16.5c11.9-5.3,24.9-10.5,38.9-15.2c14-4.7,28.9-9,44.5-12.9
		c15.6-3.9,31.7-7.3,48.3-10.2c16.5-2.9,33.4-5.3,50.3-7.2c16.9-1.9,33.9-3.2,50.6-4c16.7-0.8,33.2-1.1,49.1-0.9
		c15.9,0.2,31.3,0.9,45.8,2c14.5,1.1,28.2,2.6,40.8,4.5c12.6,1.8,24,3.9,34.1,6.1c10.1,2.2,18.8,4.4,25.9,6.4
		c7.1,2,12.7,3.8,16.4,5.1c3.8,1.3,5.8,2,5.8,2s-2-0.6-5.8-1.7c-3.8-1.1-9.4-2.7-16.6-4.4c-7.2-1.7-16-3.6-26.1-5.4
		c-10.1-1.8-21.6-3.4-34.2-4.7c-12.6-1.3-26.2-2.3-40.7-2.8c-14.5-0.5-29.7-0.7-45.5-0.2c-15.8,0.4-32,1.3-48.5,2.8
		c-16.5,1.5-33.2,3.4-49.8,5.9c-16.6,2.5-33.1,5.5-49.2,9c-16.1,3.5-31.9,7.5-46.9,11.8c-15,4.4-29.4,9.2-42.7,14.3
		c-13.4,5.1-25.7,10.5-36.7,16c-11.1,5.5-20.8,11.2-29,16.6c-8.2,5.4-14.9,10.7-20.1,15.3c-3.6,3.2-6.4,6.1-8.5,8.4
		c16.1,101.8,29.4,217.6,33.9,282.3c0.5-0.1,0.9-0.1,1.4-0.2c0-1.2,0.1-2.5,0.1-3.9c0-0.8,0-1.7,0.1-2.6c0-0.9,0-1.9-0.1-2.8
		c0-2-0.1-4.1-0.1-6.4c-0.1-2.3-0.1-4.7-0.2-7.3s-0.2-5.3-0.4-8.2c-0.2-2.9-0.3-5.8-0.4-8.9c-0.2-3.1-0.4-6.3-0.6-9.5
		c-0.4-6.6-1-13.5-1.6-20.6c-0.6-7.2-1.3-14.6-2-22.1c-0.7-7.5-1.5-15.1-2.3-22.8c-0.8-7.6-1.6-15.3-2.4-22.8
		c-0.9-7.5-1.7-14.9-2.5-22.1c-0.9-7.1-1.7-14.1-2.5-20.6c-0.8-6.6-1.6-12.7-2.3-18.5c-2.9-22.9-5.1-38.1-5.1-38.1s2.9,15.1,7,37.8
		c1,5.7,2.1,11.8,3.3,18.3c1.1,6.5,2.3,13.4,3.6,20.5c1.2,7.1,2.4,14.4,3.7,21.9c1.2,7.5,2.4,15.1,3.6,22.7
		c1.2,7.6,2.4,15.2,3.5,22.7c1.1,7.5,2.2,14.9,3.1,22c1,7.2,1.9,14.1,2.6,20.7c0.4,3.3,0.8,6.5,1.1,9.6c0.4,3.1,0.6,6.1,0.9,9
		c0.3,2.9,0.6,5.7,0.8,8.3c0.3,2.6,0.4,5.2,0.6,7.6c0.2,2.4,0.3,4.6,0.5,6.7c0.1,1,0.1,2,0.2,3c0,0.9,0.1,1.8,0.1,2.6
		c0,0.8,0.1,1.6,0.1,2.4c0.6-0.1,1.3-0.1,2-0.2c1.6-0.2,3.2-0.4,4.8-0.5c0.8-0.1,1.6-0.2,2.4-0.3c0.8-0.1,1.6-0.1,2.5-0.2
		c3.3-0.2,6.6-0.5,10.1-0.8c1.7-0.1,3.4-0.3,5.2-0.4c1.7-0.1,3.5-0.1,5.3-0.2c3.6-0.1,7.2-0.3,10.8-0.4c3.7,0,7.4,0,11.1,0
		c1.9,0,3.8,0,5.7,0c1.9,0,3.8,0.1,5.8,0.2c3.9,0.1,7.8,0.2,11.7,0.4c3.9,0.2,7.9,0.5,11.9,0.7c2,0.1,4,0.2,6.1,0.4
		c2,0.2,4.1,0.3,6.1,0.5c16.3,1.2,33.1,3.3,50,5.6c4.2,0.6,8.5,1.2,12.8,1.8c4.2,0.7,8.5,1.4,12.8,2c4.3,0.7,8.5,1.4,12.8,2.1
		c4.3,0.7,8.6,1.4,12.8,2.2c17.1,3,34.1,6.3,50.8,9.5c16.7,3.2,33.2,6.4,49.1,9.3c16,2.9,31.4,5.7,46,8c7.3,1.2,14.5,2.2,21.4,3.2
		c6.9,1,13.6,1.8,20.1,2.6c6.4,0.7,12.6,1.4,18.5,2c5.9,0.5,11.5,1,16.7,1.5c5.3,0.3,10.2,0.6,14.7,0.9s8.7,0.3,12.5,0.5
		c7.6,0.4,13.5,0.2,17.6,0.3c4.1,0,6.2,0,6.2,0s-2.2,0.1-6.2,0.2c-4.1,0.1-10,0.4-17.6,0.3c-3.8,0-8,0-12.5-0.1
		c-4.6-0.1-9.5-0.3-14.8-0.5c-5.3-0.3-10.9-0.6-16.8-0.9c-5.9-0.5-12.1-1-18.6-1.5c-6.5-0.7-13.2-1.2-20.2-2
		c-7-0.8-14.2-1.6-21.5-2.6c-14.8-1.8-30.3-4.1-46.4-6.5c-16-2.5-32.6-5.1-49.5-7.8c-16.8-2.7-33.9-5.4-51-7.9
		c-4.3-0.6-8.5-1.2-12.8-1.8c-4.3-0.6-8.5-1.2-12.8-1.7c-4.3-0.5-8.5-1.1-12.8-1.6c-4.2-0.5-8.5-1-12.7-1.4
		c-16.9-1.8-33.5-3.3-49.6-4c-2-0.1-4-0.2-6-0.3c-2-0.1-4-0.1-5.9-0.2c-3.9-0.1-7.9-0.2-11.7-0.3c-3.9,0-7.7,0-11.5,0
		c-1.9,0-3.8,0-5.6,0c-1.9,0.1-3.7,0.1-5.5,0.2c-3.7,0.1-7.3,0.2-10.9,0.4c-3.6,0.2-7.1,0.5-10.5,0.7c-1.7,0.1-3.4,0.2-5.1,0.3
		s-3.4,0.3-5,0.5c-3.3,0.4-6.5,0.7-9.7,1c-0.8,0.1-1.6,0.2-2.4,0.2c-0.8,0.1-1.6,0.2-2.3,0.3c-1.5,0.2-3.1,0.5-4.6,0.7
		c-3,0.4-6,0.9-8.8,1.3c-5.7,1-11.1,2.1-16.2,3.1c-5,1.1-9.7,2.3-14.1,3.3c-2.2,0.5-4.2,1.1-6.1,1.7c-1.9,0.6-3.8,1.1-5.5,1.6
		c-6.9,1.9-12.7,4.1-16.5,5.4c-0.6,0.2-1.1,0.4-1.5,0.5c-42.8,18.9-79.2,53-74.5,114.8c7.5,97,188.2,181,450.4,115.7
		c224-55.8,303.5-180.8,320.5-213.8C782.1,426.7,755.4,415.5,722.3,428.3L722.3,428.3z M627.2,549.4
		c-52.8,91.2-327.1,137.6-435,112.2c3.6,0.5,7.4,1,11.2,1.5c11.5,1.3,24,2.2,37.3,2.6c13.2,0.4,27.2,0.4,41.5-0.1
		c14.4-0.5,29.2-1.5,44.3-2.9c15-1.4,30.3-3.3,45.4-5.7c15.1-2.4,30.2-5.2,45-8.4c14.7-3.2,29.1-6.9,42.9-10.9
		c27.6-8.1,52.7-17.6,73.4-27.5c10.4-4.9,19.7-9.9,27.7-14.6c4-2.3,7.7-4.7,11.1-6.8c1.7-1.1,3.3-2.2,4.8-3.2c0.8-0.5,1.5-1,2.2-1.5
		c0.7-0.5,1.4-1,2.1-1.5c1.4-1,2.7-1.9,3.9-2.8c1.2-0.9,2.3-1.8,3.3-2.5c2.1-1.6,3.8-2.9,5.2-4.1c2.8-2.3,4.2-3.5,4.2-3.5
		s-1.5,1.2-4.3,3.4c-1.4,1.1-3.2,2.4-5.3,4c-1,0.8-2.2,1.6-3.4,2.5c-1.2,0.8-2.5,1.7-3.9,2.7c-0.7,0.5-1.4,1-2.1,1.5
		c-0.7,0.5-1.5,1-2.3,1.5c-1.5,1-3.2,2-4.9,3.1c-3.5,2.1-7.2,4.3-11.2,6.6c-8.1,4.5-17.5,9.3-27.9,14c-20.9,9.4-46.1,18.3-73.7,25.8
		c-13.8,3.7-28.2,7-42.9,9.9c-14.7,2.9-29.7,5.4-44.8,7.4c-15.1,2-30.2,3.6-45.2,4.7c-14.9,1.1-29.7,1.8-43.9,2
		c-14.2,0.2-28-0.1-41-0.8c-13-0.7-25.3-1.8-36.5-3.4c-11.2-1.5-21.4-3.5-30.2-5.8c-8.8-2.3-16.2-4.9-21.8-7.6
		c-5.7-2.7-9.5-5.5-11.6-7.5c-0.1-0.1-0.1-0.1-0.2-0.2c-15.5-20.6-3.9-44.6,18.2-64.8c0.6-0.6,1.2-1.2,1.9-1.8c1.1-1,2.1-2,3.3-3.1
		c0.6-0.5,1.1-1.1,1.8-1.6c0.6-0.5,1.3-1,1.9-1.6c1.3-1.1,2.6-2.2,4-3.4c0.4-0.3,0.7-0.6,1.1-0.9c0.4-0.3,0.7-0.5,1.1-0.8
		c0.8-0.5,1.5-1.1,2.3-1.7c1.5-1.1,3.1-2.3,4.8-3.5c1.7-1.1,3.4-2.3,5.2-3.4c0.9-0.6,1.8-1.2,2.7-1.8c0.9-0.6,1.9-1.1,2.8-1.7
		c1.9-1.1,3.8-2.3,5.8-3.5c2-1.1,4.1-2.2,6.1-3.3c1-0.6,2.1-1.1,3.1-1.7c1.1-0.6,2.2-1.1,3.3-1.6c2.2-1.1,4.4-2.2,6.7-3.3
		c2.3-1,4.6-2,7-3.1c1.2-0.5,2.4-1.1,3.6-1.6c1.2-0.5,2.4-1,3.6-1.5c2.4-1,4.9-2,7.4-2.9c2.5-0.9,5.1-1.8,7.6-2.8
		c10.3-3.6,21-7,32-9.9c1.4-0.4,2.8-0.8,4.1-1.1c1.4-0.3,2.8-0.7,4.2-1c2.8-0.7,5.6-1.4,8.4-2.1c5.6-1.2,11.3-2.6,17-3.6
		c11.3-2.3,22.8-4.1,34-5.8c5.6-0.8,11.2-1.5,16.8-2.1c2.8-0.3,5.5-0.7,8.2-0.9c2.7-0.3,5.5-0.5,8.1-0.8c5.4-0.5,10.7-0.8,15.9-1.3
		c5.2-0.3,10.3-0.6,15.2-0.8c9.9-0.4,19.3-0.6,27.9-0.6c4.3,0,8.5,0,12.4,0.1c3.9,0.1,7.7,0.1,11.2,0.3c3.5,0.1,6.8,0.3,9.8,0.4
		c3,0.2,5.8,0.3,8.3,0.5c2.5,0.1,4.8,0.3,6.7,0.5c2,0.2,3.6,0.3,5,0.4c2.7,0.2,4.1,0.3,4.1,0.3s-1.4-0.1-4.1-0.2
		c-1.4-0.1-3-0.1-5-0.2c-2-0.1-4.2-0.2-6.7-0.3c-2.5-0.1-5.3-0.2-8.3-0.2c-3,0-6.3-0.1-9.8-0.1c-3.5-0.1-7.2,0-11.2,0
		c-3.9,0-8.1,0.2-12.4,0.3c-8.6,0.2-18,0.8-27.8,1.4c-4.9,0.3-10,0.8-15.1,1.2c-5.1,0.6-10.4,1-15.8,1.7c-2.7,0.3-5.4,0.7-8.1,1
		c-2.7,0.3-5.4,0.8-8.2,1.1c-5.5,0.7-11,1.7-16.6,2.6c-11.1,2-22.4,4.1-33.6,6.7c-5.6,1.2-11.1,2.7-16.7,4.1
		c-2.8,0.8-5.5,1.5-8.2,2.3c-1.4,0.4-2.7,0.8-4.1,1.1c-1.4,0.4-2.7,0.8-4,1.2c-10.8,3.2-21.2,6.9-31.2,10.7c-2.5,1-4.9,2-7.4,2.9
		c-2.4,1-4.8,2.1-7.1,3.1c-1.2,0.5-2.4,1-3.5,1.5c-1.2,0.5-2.3,1.1-3.4,1.6c-2.3,1.1-4.5,2.2-6.7,3.2c-2.2,1.1-4.3,2.2-6.4,3.3
		c-1,0.6-2.1,1.1-3.1,1.7c-1,0.6-2,1.2-3,1.7c-2,1.2-3.9,2.2-5.8,3.4c-1.9,1.2-3.7,2.3-5.5,3.5c-0.9,0.6-1.8,1.1-2.6,1.7
		c-0.8,0.6-1.7,1.2-2.5,1.8c-1.6,1.2-3.3,2.3-4.8,3.4c-1.5,1.2-3,2.3-4.4,3.5c-0.7,0.6-1.4,1.1-2.1,1.7c-0.4,0.3-0.7,0.5-1,0.8
		c-0.3,0.3-0.6,0.6-1,0.8c-1.3,1.1-2.5,2.2-3.7,3.3c-0.6,0.5-1.2,1-1.8,1.5c-0.3,0.3-0.6,0.6-0.9,0.9c-0.5,0.5-1,0.9-1.6,1.4
		c-1,1-2.2,2-3.3,3.2c-1.2,1.1-2.4,2.3-3.6,3.6c-1.2,1.2-2.5,2.6-3.7,4c-1.2,1.4-2.5,2.8-3.7,4.3c-0.6,0.7-1.2,1.5-1.8,2.2
		c-0.6,0.8-1.1,1.5-1.7,2.2c-1.1,1.5-2.1,3-3.2,4.5c-0.9,1.5-1.9,2.9-2.6,4.4c-0.8,1.4-1.5,2.8-2.1,4.1c-0.6,1.3-1,2.5-1.4,3.6
		c-0.3,1.1-0.6,2.1-0.8,2.8c-0.2,1.6-0.4,2.5-0.4,2.5s0.3-0.9,0.8-2.4c0.3-0.7,0.8-1.6,1.2-2.6c0.6-1,1.2-2,2-3.2
		c0.8-1.1,1.6-2.3,2.7-3.5c1-1.2,2.1-2.4,3.2-3.7c0.6-0.6,1.2-1.2,1.8-1.8c0.6-0.6,1.2-1.2,1.9-1.8c0.7-0.6,1.3-1.2,2-1.8
		c0.7-0.6,1.4-1.2,2.1-1.8c1.4-1.2,2.8-2.3,4.2-3.4c1.4-1.1,2.8-2.1,4.2-3.1c1.4-1,2.7-1.9,4-2.8c1.3-0.9,2.5-1.7,3.6-2.4
		c1.1-0.7,2.2-1.4,3.1-1.9c0.4-0.2,0.7-0.4,1-0.6c51.3,17.2,124.4,19.5,202.1,2.7c71.4-15.4,132.7-43.9,172.9-77
		c-2.6,2.4-5.7,5.1-9.2,7.9c-4.6,3.7-10,7.8-16.1,12c-3,2.1-6.3,4.2-9.6,6.4c-3.4,2.1-6.9,4.3-10.6,6.4c-7.3,4.3-15.2,8.6-23.5,12.8
		c-8.3,4.2-17.1,8.1-26,11.9c-4.5,1.8-9.1,3.7-13.7,5.5c-4.6,1.8-9.3,3.4-14,5.1c-2.3,0.8-4.7,1.6-7.1,2.3c-2.4,0.8-4.7,1.6-7.1,2.3
		c-4.8,1.4-9.5,2.9-14.2,4.1c-2.4,0.6-4.7,1.3-7.1,1.9c-2.4,0.6-4.7,1.1-7,1.7c-2.3,0.5-4.6,1.1-7,1.6s-4.6,1-6.9,1.5
		c-9.1,1.9-18,3.4-26.5,4.7c-4.2,0.7-8.4,1.1-12.4,1.6c-2,0.2-4,0.5-5.9,0.7c-1.9,0.2-3.8,0.4-5.7,0.5c-7.4,0.8-14.3,1.1-20.4,1.5
		c-6.1,0.2-11.4,0.4-15.8,0.5c-8.7,0-13.7,0.1-13.7,0.1s5,0.1,13.7,0.4c4.4,0,9.7,0,15.8,0c6.1-0.2,13-0.3,20.5-0.8
		c1.9-0.1,3.8-0.2,5.7-0.3c2-0.1,3.9-0.3,6-0.5c4-0.4,8.2-0.7,12.5-1.2c8.6-1,17.6-2.2,26.8-3.8c2.3-0.4,4.6-0.8,7-1.2
		s4.7-0.9,7.1-1.4c2.4-0.5,4.8-1,7.1-1.5c2.4-0.5,4.8-1.1,7.2-1.7c4.8-1.1,9.6-2.4,14.5-3.6c2.4-0.6,4.8-1.4,7.2-2
		c2.4-0.7,4.8-1.3,7.2-2.1c4.8-1.5,9.6-3,14.3-4.7c4.8-1.6,9.4-3.3,14.1-5.1c9.2-3.6,18.3-7.2,26.9-11.2c8.6-3.9,16.8-8,24.4-12.2
		c3.8-2,7.5-4.2,11-6.2c3.5-2.1,6.9-4.1,10.1-6.2c6.4-4.1,12.1-8.1,17.1-11.8c5-3.7,9.2-7.3,12.5-10.2c1.7-1.6,3.2-2.9,4.4-4.2
		c1.3-1.3,2.4-2.4,3.2-3.3c0.2-0.2,0.3-0.4,0.5-0.6C620.4,505.3,644.6,519.3,627.2,549.4L627.2,549.4z M624.1,430.8
		c-4.2,0-9.3,0.1-15-0.2c-5.8-0.2-12.2-0.4-19.3-0.8c-7.1-0.5-14.8-1-23-1.5c-8.2-0.7-16.7-1.5-25.6-2.3c-8.9-1-18.1-2-27.4-3
		c-4.6-0.6-9.4-1.2-14.1-1.8s-9.5-1.2-14.2-1.9c-9.4-1.4-18.9-2.6-28.2-4.1c-4.6-0.7-9.2-1.4-13.8-2.1c-4.5-0.7-9-1.5-13.5-2.2
		c-8.8-1.4-17.4-2.9-25.4-4.3c-8.1-1.4-15.7-2.8-22.8-4.1c-7-1.3-13.5-2.6-19.2-3.7c-5.7-1.1-10.7-2.1-14.8-2.9
		c-8.2-1.7-12.9-2.7-12.9-2.7s4.6,1.1,12.8,3.1c4.1,1,9,2.1,14.7,3.5c5.7,1.3,12.1,2.7,19.1,4.3c7,1.5,14.6,3.2,22.6,4.9
		c8,1.7,16.5,3.5,25.3,5.2c4.4,0.9,8.9,1.8,13.4,2.7c4.5,0.9,9.1,1.7,13.7,2.6c9.2,1.8,18.7,3.4,28.1,5.1c4.7,0.9,9.4,1.6,14.1,2.4
		s9.4,1.5,14,2.3c9.3,1.4,18.5,2.7,27.4,4c8.9,1.1,17.5,2.2,25.7,3.2c8.2,0.8,16,1.6,23.1,2.4c7.2,0.6,13.8,1,19.7,1.5
		c0.2,0,0.4,0,0.6,0c-60.8-0.9-150-15.8-210-27.6c-43.9-8.6-106.3-19.5-138.3-28.5c7.2-1.7,15.4-3.6,24.3-5.6
		c9.1-2,19.1-4.1,29.6-6.1c5.3-1,10.7-2,16.2-3c5.6-1,11.2-2,17-2.9c5.8-0.9,11.7-1.9,17.6-2.7c3-0.4,6-0.9,9-1.3
		c3-0.4,6.1-0.8,9.1-1.2c3-0.4,6.1-0.7,9.2-1.1c3.1-0.3,6.2-0.7,9.3-1c6.2-0.6,12.4-1.3,18.6-1.7c12.5-1.1,24.9-1.7,37.2-2.1
		c3.1-0.1,6.1-0.1,9.2-0.2c3,0,6.1,0,9.1,0c1.5,0,3,0,4.5,0c1.5,0,3,0.1,4.5,0.1c3,0.1,5.9,0.1,8.9,0.2c5.9,0.3,11.6,0.5,17.2,1
		c5.6,0.4,11.1,1,16.5,1.6c2.7,0.3,5.3,0.7,7.9,1.1c2.6,0.4,5.1,0.7,7.6,1.2c2.5,0.4,4.9,0.9,7.3,1.3c2.4,0.5,4.7,1,7,1.5
		c4.6,0.9,8.9,2.2,13,3.3c2.1,0.5,4,1.2,6,1.8c1.9,0.6,3.8,1.2,5.6,1.8c1.8,0.7,3.5,1.3,5.2,2c1.7,0.6,3.3,1.2,4.8,1.9
		c1.5,0.7,3,1.3,4.3,1.9c1.4,0.6,2.7,1.1,3.9,1.8c2.4,1.3,4.6,2.4,6.5,3.4c1.9,1,3.4,2.1,4.6,2.8c2.5,1.6,3.8,2.4,3.8,2.4
		s-1.3-0.9-3.7-2.6c-1.2-0.8-2.7-2-4.5-3.1c-1.8-1.1-4-2.4-6.3-3.8c-1.2-0.8-2.5-1.3-3.8-2c-1.4-0.7-2.8-1.4-4.3-2.2
		c-1.5-0.8-3.1-1.4-4.7-2.2c-1.7-0.7-3.4-1.5-5.1-2.2c-1.8-0.8-3.7-1.4-5.6-2.1c-1.9-0.7-3.9-1.5-5.9-2.2c-4.1-1.3-8.4-2.8-13-4
		c-2.3-0.6-4.6-1.3-7-1.9c-2.4-0.6-4.9-1.1-7.3-1.7c-2.5-0.6-5-1.1-7.6-1.6c-2.6-0.5-5.2-1-7.9-1.5c-5.4-0.9-10.9-1.8-16.6-2.5
		c-5.7-0.8-11.5-1.3-17.4-1.9c-3-0.3-5.9-0.5-9-0.7c-1.5-0.1-3-0.2-4.5-0.3c-1.5-0.1-3-0.2-4.6-0.2c-3-0.2-6.1-0.3-9.2-0.5
		c-3.1-0.1-6.2-0.2-9.3-0.3c-12.5-0.3-25.1-0.3-37.8,0.1c-6.3,0.1-12.7,0.5-19,0.7c-3.1,0.1-6.3,0.4-9.4,0.5
		c-3.1,0.2-6.3,0.4-9.4,0.6c-3.1,0.2-6.2,0.5-9.3,0.7c-3.1,0.2-6.1,0.5-9.2,0.8c-6.1,0.5-12.1,1.2-18,1.8c-5.9,0.6-11.7,1.3-17.4,2
		c-5.7,0.8-11.2,1.4-16.6,2.2c-6.9,1-13.6,2-19.9,2.9c22.4-4.8,51.5-9.5,94.2-14c123.4-13,214.3,8.4,242,41.1c0,0,4.3,19.4,5.5,44.4
		C631.9,430.8,628.5,430.8,624.1,430.8L624.1,430.8z"/>
</g>
</svg>
