<?xml version="1.0" encoding="UTF-8"?><svg id="uuid-60d51443-e0fa-46bf-934b-eb256c1f466e" xmlns="http://www.w3.org/2000/svg" viewBox="0 0 182.4 42.66"><defs><style>.uuid-586aac19-22b8-4523-9295-89a23d2171bb{stroke-width:0px;}</style></defs><g id="uuid-f6427042-ec06-41ce-965e-d6cff78fa72d"><path class="uuid-586aac19-22b8-4523-9295-89a23d2171bb" d="m14.39,42.66c-.6,0-1.36-.1-1.95-.33l.11-.5c.62.19,1.25.28,1.85.28,1.18,0,1.5-.35,1.5-1.23,0-1.07-.01-1.18-1.54-1.53-1.66-.38-1.85-.68-1.85-2.07,0-1.13.42-1.72,2.14-1.72.6,0,1.31.1,1.78.24l-.07.52c-.51-.11-1.15-.21-1.69-.21-1.37,0-1.55.33-1.55,1.19,0,1.12.03,1.17,1.48,1.53,1.81.45,1.91.71,1.91,2.02,0,1.13-.38,1.81-2.13,1.81"/><path class="uuid-586aac19-22b8-4523-9295-89a23d2171bb" d="m22.54,42.66c-1.77,0-2.41-.87-2.41-2.05v-3c0-1.18.64-2.05,2.41-2.05s2.41.87,2.41,2.05v3c0,1.18-.64,2.05-2.41,2.05m1.8-2.07v-2.96c0-.98-.48-1.52-1.8-1.52s-1.8.54-1.8,1.52v2.96c0,.98.48,1.52,1.8,1.52s1.8-.54,1.8-1.52"/><polygon class="uuid-586aac19-22b8-4523-9295-89a23d2171bb" points="28.72 42.55 28.72 35.66 32.64 35.66 32.64 36.21 29.33 36.21 29.33 38.87 32.42 38.87 32.42 39.42 29.33 39.42 29.33 42.55 28.72 42.55"/><polygon class="uuid-586aac19-22b8-4523-9295-89a23d2171bb" points="37.52 36.21 35.4 36.21 35.4 35.66 40.25 35.66 40.25 36.21 38.13 36.21 38.13 42.55 37.52 42.55 37.52 36.21"/><polygon class="uuid-586aac19-22b8-4523-9295-89a23d2171bb" points="47.21 36.1 45.68 42.55 44.73 42.55 42.87 35.66 43.46 35.66 45.18 42.09 46.72 35.66 47.7 35.66 49.24 42.09 50.97 35.66 51.56 35.66 49.69 42.55 48.74 42.55 47.21 36.1"/><path class="uuid-586aac19-22b8-4523-9295-89a23d2171bb" d="m58.2,40.74h-3.21l-.64,1.81h-.6l2.4-6.89h.9l2.4,6.89h-.6l-.65-1.81Zm-3.02-.53h2.83l-1.42-4.2-1.42,4.2Z"/><path class="uuid-586aac19-22b8-4523-9295-89a23d2171bb" d="m65.39,39.9h-1.97v2.65h-.61v-6.89h2.44c1.39,0,1.89.63,1.89,1.59v1.06c0,.75-.31,1.31-1.12,1.51l1.84,2.73h-.69l-1.79-2.65Zm-.12-3.69h-1.84v3.15h1.84c.87,0,1.27-.29,1.27-1.04v-1.06c0-.75-.4-1.05-1.27-1.05"/><polygon class="uuid-586aac19-22b8-4523-9295-89a23d2171bb" points="71.28 35.66 75.16 35.66 75.16 36.21 71.89 36.21 71.89 38.77 74.93 38.77 74.93 39.31 71.89 39.31 71.89 42 75.17 42 75.17 42.55 71.28 42.55 71.28 35.66"/><path class="uuid-586aac19-22b8-4523-9295-89a23d2171bb" d="m85.5,35.66c1.68,0,2.15.87,2.15,2.04v2.81c0,1.17-.48,2.04-2.15,2.04h-2.28v-6.89h2.28Zm-1.67,6.34h1.68c1.16,0,1.53-.48,1.53-1.46v-2.88c0-.98-.37-1.46-1.53-1.46h-1.68v5.79Z"/><polygon class="uuid-586aac19-22b8-4523-9295-89a23d2171bb" points="91.4 35.66 95.27 35.66 95.27 36.21 92.01 36.21 92.01 38.77 95.05 38.77 95.05 39.31 92.01 39.31 92.01 42 95.29 42 95.29 42.55 91.4 42.55 91.4 35.66"/><polygon class="uuid-586aac19-22b8-4523-9295-89a23d2171bb" points="103.32 35.66 103.92 35.66 101.49 42.55 100.66 42.55 98.23 35.66 98.83 35.66 101.07 42 103.32 35.66"/><polygon class="uuid-586aac19-22b8-4523-9295-89a23d2171bb" points="107.12 35.66 111 35.66 111 36.21 107.73 36.21 107.73 38.77 110.77 38.77 110.77 39.31 107.73 39.31 107.73 42 111.01 42 111.01 42.55 107.12 42.55 107.12 35.66"/><polygon class="uuid-586aac19-22b8-4523-9295-89a23d2171bb" points="115.34 42 118.44 42 118.44 42.55 114.73 42.55 114.73 35.66 115.34 35.66 115.34 42"/><path class="uuid-586aac19-22b8-4523-9295-89a23d2171bb" d="m123.8,42.66c-1.77,0-2.41-.87-2.41-2.05v-3c0-1.18.64-2.05,2.41-2.05s2.41.87,2.41,2.05v3c0,1.18-.64,2.05-2.41,2.05m1.8-2.07v-2.96c0-.98-.48-1.52-1.8-1.52s-1.8.54-1.8,1.52v2.96c0,.98.48,1.52,1.8,1.52s1.8-.54,1.8-1.52"/><path class="uuid-586aac19-22b8-4523-9295-89a23d2171bb" d="m129.98,35.66h2.34c1.39,0,1.89.63,1.89,1.59v1.08c0,.96-.51,1.59-1.89,1.59h-1.73v2.63h-.61v-6.89Zm2.35.55h-1.74v3.17h1.74c.87,0,1.27-.29,1.27-1.05v-1.08c0-.75-.4-1.05-1.27-1.05"/><polygon class="uuid-586aac19-22b8-4523-9295-89a23d2171bb" points="143.33 36.27 141.32 41.66 140.38 41.66 138.37 36.27 138.23 42.55 137.62 42.55 137.83 35.66 138.72 35.66 140.86 41.29 142.99 35.66 143.88 35.66 144.08 42.55 143.47 42.55 143.33 36.27"/><polygon class="uuid-586aac19-22b8-4523-9295-89a23d2171bb" points="147.96 35.66 151.84 35.66 151.84 36.21 148.57 36.21 148.57 38.77 151.61 38.77 151.61 39.31 148.57 39.31 148.57 42 151.85 42 151.85 42.55 147.96 42.55 147.96 35.66"/><polygon class="uuid-586aac19-22b8-4523-9295-89a23d2171bb" points="156.15 36.26 156.15 42.55 155.57 42.55 155.57 35.66 156.46 35.66 159.73 41.96 159.73 35.66 160.31 35.66 160.31 42.55 159.42 42.55 156.15 36.26"/><polygon class="uuid-586aac19-22b8-4523-9295-89a23d2171bb" points="165.68 36.21 163.56 36.21 163.56 35.66 168.41 35.66 168.41 36.21 166.29 36.21 166.29 42.55 165.68 42.55 165.68 36.21"/><path class="uuid-586aac19-22b8-4523-9295-89a23d2171bb" d="m8.45,28.08c.86-.15,1.54-.34,2.03-.56.87-.39,1.35-1.15,1.35-2.14V.81h-5.37c-.96,0-1.79.1-2.47.3-.7.2-1.32.52-1.85.94-.52.42-.97.96-1.35,1.6-.26.45-.53.95-.81,1.51.15-.62.28-1.21.38-1.74.15-.82.28-1.5.39-2.05.13-.61.25-.94.33-1.12.13.01.41.03.77.06l2.55.18c.46.03.89.05,1.3.05h14.88c.37,0,.79-.01,1.26-.05,0,0,2.2-.15,2.57-.18.35-.03.63-.04.85-.04.04.26.15.65.26,1.17.12.55.24,1.24.37,2.06.09.57.23,1.18.41,1.83-.29-.64-.58-1.2-.86-1.68-.37-.64-.81-1.17-1.31-1.59-.51-.42-1.13-.74-1.84-.95-.68-.2-1.51-.3-2.47-.3h-5.37v24.57c0,.97.45,1.73,1.28,2.15.44.22,1.05.4,1.84.54-.4-.02-.8-.04-1.22-.06-1.07-.04-2.14-.07-3.22-.07s-2.12.02-3.22.07c-.51.02-1,.04-1.48.07"/><path class="uuid-586aac19-22b8-4523-9295-89a23d2171bb" d="m42.96,28.48c-2,0-3.85-.34-5.5-1.01-1.64-.67-3.07-1.63-4.25-2.87-1.19-1.24-2.12-2.75-2.78-4.48-.66-1.74-1-3.72-1-5.87,0-1.94.36-3.79,1.06-5.5.7-1.72,1.67-3.24,2.88-4.53,1.2-1.29,2.62-2.33,4.22-3.08,1.58-.75,3.27-1.13,5.01-1.13,2.47,0,4.64.39,6.47,1.17,1.82.77,3.34,1.81,4.52,3.11,1.18,1.3,2.08,2.82,2.67,4.52.59,1.72.89,3.56.89,5.45,0,2.23-.37,4.25-1.1,6-.73,1.75-1.74,3.25-3.01,4.46-1.27,1.21-2.79,2.16-4.5,2.8-1.73.65-3.61.98-5.59.98m-.49-27.89c-1.31,0-2.59.25-3.8.75-1.21.5-2.28,1.24-3.2,2.19-.91.94-1.65,2.11-2.19,3.48-.54,1.36-.81,2.94-.81,4.7,0,2.25.25,4.38.74,6.32.49,1.96,1.22,3.69,2.17,5.14.97,1.48,2.19,2.65,3.63,3.48,1.45.84,3.12,1.26,4.98,1.26,1.5,0,2.9-.29,4.16-.87,1.25-.58,2.35-1.39,3.24-2.42.89-1.02,1.6-2.25,2.09-3.64.49-1.38.73-2.91.73-4.54,0-2.19-.23-4.26-.69-6.13-.46-1.9-1.18-3.59-2.14-5.02-.97-1.45-2.21-2.6-3.7-3.43-1.5-.83-3.25-1.26-5.21-1.26"/><path class="uuid-586aac19-22b8-4523-9295-89a23d2171bb" d="m71.33,28.01c-1.11-.05-2.31-.07-3.59-.07-.78,0-1.67.02-2.67.07-.44.02-.86.04-1.27.06.77-.19,1.31-.37,1.66-.57.46-.25,1-.79,1-1.91V2.92c0-1.1-.59-1.68-1.08-1.96-.38-.22-.9-.4-1.61-.54.33.02.66.04,1.01.05.95.04,1.85.07,2.69.07h6.28c2.99,0,5.24.69,6.68,2.06,1.45,1.37,2.16,3.11,2.16,5.32,0,.84-.19,1.71-.58,2.58-.39.88-.96,1.69-1.7,2.4-.74.72-1.68,1.32-2.79,1.78-1.1.46-2.37.7-3.78.7h-4.65v9.91c0,.99.51,1.76,1.45,2.16.58.25,1.36.46,2.38.63-.5-.03-1.03-.05-1.6-.07m-2.23-12.9h3.14c2.25,0,4.04-.52,5.3-1.56,1.31-1.07,1.98-2.85,1.98-5.28,0-.98-.11-1.91-.34-2.78-.24-.91-.65-1.72-1.22-2.42-.58-.7-1.36-1.27-2.3-1.67-.93-.4-2.08-.6-3.42-.6h-3.14v14.3Z"/><path class="uuid-586aac19-22b8-4523-9295-89a23d2171bb" d="m97.88,28.07c.69-.17,1.21-.35,1.56-.55.47-.27,1.02-.82,1.02-1.92V2.96c0-.38-.05-.72-.16-1.01-.13-.34-.36-.63-.7-.87-.28-.2-.64-.36-1.11-.49-.22-.06-.47-.12-.76-.19.4.02.83.05,1.29.07.99.04,1.9.07,2.71.07s1.73-.02,2.67-.07c.44-.02.87-.04,1.3-.07-.8.17-1.36.38-1.73.64-.4.29-.88.86-.88,1.92v10.76h15.55V2.96c0-.73-.28-1.35-.8-1.81-.35-.31-.91-.55-1.73-.74.35.02.72.04,1.11.06,1.01.04,1.91.07,2.71.07s1.71-.02,2.62-.07c.44-.02.88-.05,1.33-.07-.8.17-1.37.38-1.74.64-.4.29-.88.86-.88,1.92v22.64c0,1.11.52,1.64.97,1.9.34.2.86.38,1.6.57-.36-.02-.73-.04-1.12-.06-1.02-.04-1.93-.07-2.73-.07s-1.73.02-2.67.07c-.41.02-.82.04-1.22.06.68-.17,1.19-.35,1.54-.55.47-.27,1.02-.82,1.02-1.92v-11.56h-15.55v11.56c0,1.11.53,1.64.97,1.9.34.2.86.38,1.6.56-.36-.02-.73-.04-1.13-.06-1.02-.04-1.94-.07-2.75-.07s-1.73.02-2.67.07c-.41.02-.82.04-1.23.06"/><path class="uuid-586aac19-22b8-4523-9295-89a23d2171bb" d="m155.06,28.01c-.93-.04-1.81-.07-2.62-.07s-1.8.02-2.88.07c-.51.02-1,.04-1.46.07.45-.11.81-.22,1.12-.35,1.04-.42,1.2-1.18,1.2-1.59,0-.29-.08-.61-.24-.98l-2.98-7.81h-11l-3.05,7.66c-.18.44-.28.83-.28,1.18,0,1.08,1.11,1.6,2.12,1.87-.23-.01-.45-.03-.68-.04-.9-.04-1.79-.07-2.67-.07-.61,0-1.23.01-1.86.04-.11,0-.22.01-.33.02.54-.13.97-.27,1.31-.43.63-.31,1.1-.79,1.38-1.43L142.87.28c.05-.11.09-.19.12-.23l10.61,26.2c.27.63.82,1.1,1.65,1.41.48.18.96.33,1.43.43-.54-.03-1.07-.06-1.6-.09m-18.74-10.94h10.74l-5.26-13.85-5.48,13.85Z"/><path class="uuid-586aac19-22b8-4523-9295-89a23d2171bb" d="m164.54,28.08c.86-.15,1.54-.34,2.04-.56.87-.39,1.35-1.15,1.35-2.14V.81h-5.37c-.96,0-1.79.1-2.47.3-.7.2-1.32.52-1.85.94-.52.42-.97.95-1.35,1.6-.26.45-.53.95-.81,1.51.15-.63.28-1.21.37-1.74.15-.82.28-1.5.4-2.04.13-.61.25-.94.33-1.12.13.02.41.03.77.06l2.55.18c.46.03.9.05,1.3.05h14.88c.37,0,.79-.01,1.25-.05,0,0,2.2-.15,2.57-.18.35-.03.63-.04.85-.04.04.26.15.65.26,1.17.11.55.24,1.24.37,2.06.09.57.23,1.19.4,1.83-.29-.64-.58-1.19-.86-1.68-.37-.64-.81-1.17-1.31-1.59-.52-.43-1.14-.75-1.84-.95-.68-.2-1.49-.3-2.47-.3h-5.37v24.57c0,.99.44,1.73,1.28,2.15.44.22,1.05.4,1.84.54-.4-.02-.8-.04-1.22-.06-1.07-.04-2.14-.07-3.22-.07s-2.12.02-3.22.07c-.51.02-1,.04-1.48.07"/></g></svg>